{"canvas_config":{"background":null,"height":1920,"ratio":"original","width":1920},"color_space":0,"config":{"adjust_max_index":1,"attachment_info":[],"combination_max_index":1,"export_range":null,"extract_audio_last_index":1,"lyrics_recognition_id":"","lyrics_sync":true,"lyrics_taskinfo":[],"maintrack_adsorb":true,"material_save_mode":0,"multi_language_current":"none","multi_language_list":[],"multi_language_main":"none","multi_language_mode":"none","original_sound_last_index":1,"record_audio_last_index":1,"sticker_max_index":1,"subtitle_keywords_config":null,"subtitle_recognition_id":"","subtitle_sync":true,"subtitle_taskinfo":[],"system_font_list":[],"video_mute":false,"zoom_info_params":null},"cover":{"cover_draft_id":"","cover_template":null,"sub_type":"","type":"web_cover","web_cover_info":{"materials":[{"extra_info":"7b 5c 22 69 6d 61 67 65 58 55 72 69 5c 22 3a 5c 22 74 6f 73 2d 6d 61 6c 69 76 61 2d 69 2d 64 61 6e 61 61 34 67 66 68 74 2d 75 73 2f 33 35 33 35 30 61 39 65 38 34 65 39 34 62 39 66 62 30 32 64 34 30 33 33 62 34 63 38 65 33 66 34 5c 22 7d","file_name":"43c69367-6ee7-47b6-9ed1-715112a231b8.jpg","id":"432CB24A-D91E-4fe0-8210-C095D8FC1711","md5":"a369eaf7bd45facf105512ea40477ac6","path":"##_draftpath_placeholder_0E685133-18CE-45ED-8CB8-2904A212EC80_##/Resources/cover/Asset/43c69367-6ee7-47b6-9ed1-715112a231b8.jpg","thumbnail_height":1920,"thumbnail_width":1920}],"origin_image_path":"","web_cover_json_path":""}},"create_time":0,"duration":88100000,"extra_info":null,"fps":30.0,"free_render_index_mode_on":false,"group_container":null,"id":"B488306E-8BAF-42c2-A1FD-515B957BDA98","is_drop_frame_timecode":false,"keyframe_graph_list":[],"keyframes":{"adjusts":[],"audios":[],"effects":[],"filters":[],"handwrites":[],"stickers":[],"texts":[],"videos":[]},"last_modified_platform":{"app_id":359289,"app_source":"cc","app_version":"5.9.0","device_id":"c87871b01ed15b67aca19f3efea983b4","hard_disk_id":"98697f5b2672733057711c84e4b517c3","mac_address":"09861091e4eef2367b35d8703476edfc,3ab780bc59d11a00e1ba676c31de1115","os":"windows","os_version":"10.0.26100"},"lyrics_effects":[],"materials":{"ai_translates":[],"audio_balances":[],"audio_effects":[],"audio_fades":[],"audio_track_indexes":[],"audios":[{"ai_music_generate_scene":0,"ai_music_type":0,"aigc_history_id":"","aigc_item_id":"","app_id":0,"category_id":"","category_name":"local","check_flag":1,"copyright_limit_type":"none","duration":88066666,"effect_id":"","formula_id":"","id":"06219819-263E-49d2-B448-63BD1043EDBA","intensifies_path":"","is_ai_clone_tone":false,"is_ai_clone_tone_post":false,"is_text_edit_overdub":false,"is_ugc":false,"local_material_id":"58164381-7f55-4790-8a7e-6eb9a6a59626","lyric_type":0,"moyin_emotion":"","music_id":"a81823b5-16b6-4dc8-93b2-41d3d2031b57","music_source":"","name":"damp.mp3","path":"C:/Users/Computer/dev/music/maven.github-repo-downloader-demo/target/mixcraft.damp/damp.mp3","pgc_id":"","pgc_name":"","query":"","request_id":"","resource_id":"","search_id":"","similiar_music_info":{"original_song_id":"","original_song_name":""},"sound_separate_type":"","source_from":"","source_platform":0,"team_id":"","text_id":"","third_resource_id":"","tone_category_id":"","tone_category_name":"","tone_effect_id":"","tone_effect_name":"","tone_emotion_name_key":"","tone_emotion_role":"","tone_emotion_scale":0.0,"tone_emotion_selection":"","tone_emotion_style":"","tone_platform":"","tone_second_category_id":"","tone_second_category_name":"","tone_speaker":"","tone_type":"","tts_generate_scene":"","tts_task_id":"","type":"extract_music","video_id":"","wave_points":[]}],"beats":[{"ai_beats":{"beat_speed_infos":[],"beats_path":"","beats_url":"","melody_path":"","melody_percents":[0.0],"melody_url":""},"enable_ai_beats":false,"gear":404,"gear_count":0,"id":"C51BD09D-3A61-49da-90A9-C1F2A46D6D59","mode":404,"type":"beats","user_beats":[],"user_delete_ai_beats":null}],"canvases":[{"album_image":"","blur":0.0,"color":"","id":"1C322956-BD0F-4434-8D39-5B0A645321D3","image":"","image_id":"","image_name":"","source_platform":0,"team_id":"","type":"canvas_color"},{"album_image":"","blur":0.0,"color":"","id":"178E86F9-58AF-4b60-A84C-9BA5C435D347","image":"","image_id":"","image_name":"","source_platform":0,"team_id":"","type":"canvas_color"},{"album_image":"","blur":0.0,"color":"","id":"B202F3A1-3D21-4305-B5CD-70B84402DBB9","image":"","image_id":"","image_name":"","source_platform":0,"team_id":"","type":"canvas_color"},{"album_image":"","blur":0.0,"color":"","id":"D220AF88-4BBD-4fd9-94C2-EA1CE4E5B2D8","image":"","image_id":"","image_name":"","source_platform":0,"team_id":"","type":"canvas_color"},{"album_image":"","blur":0.0,"color":"","id":"B2169166-9588-4aed-96CF-0725FE22864C","image":"","image_id":"","image_name":"","source_platform":0,"team_id":"","type":"canvas_color"},{"album_image":"","blur":0.0,"color":"","id":"18B84CC5-5DE6-4981-97EA-3D58FF2D6AC7","image":"","image_id":"","image_name":"","source_platform":0,"team_id":"","type":"canvas_color"},{"album_image":"","blur":0.0,"color":"","id":"00D0D4F5-69FD-4aad-9074-B96CA60704BE","image":"","image_id":"","image_name":"","source_platform":0,"team_id":"","type":"canvas_color"},{"album_image":"","blur":0.0,"color":"","id":"A4D44E82-6F8B-41c9-9060-581E3C6D5B89","image":"","image_id":"","image_name":"","source_platform":0,"team_id":"","type":"canvas_color"},{"album_image":"","blur":0.0,"color":"","id":"CAD8871A-AE4B-49ee-BA63-3D71EAD1F40F","image":"","image_id":"","image_name":"","source_platform":0,"team_id":"","type":"canvas_color"},{"album_image":"","blur":0.0,"color":"","id":"F0349F68-2B3C-41e1-B166-A134551A5722","image":"","image_id":"","image_name":"","source_platform":0,"team_id":"","type":"canvas_color"},{"album_image":"","blur":0.0,"color":"","id":"06500254-3C38-4615-8B11-C6FB24CBE730","image":"","image_id":"","image_name":"","source_platform":0,"team_id":"","type":"canvas_color"},{"album_image":"","blur":0.0,"color":"","id":"8EE9D96A-6525-4a83-9FD1-86190146F270","image":"","image_id":"","image_name":"","source_platform":0,"team_id":"","type":"canvas_color"},{"album_image":"","blur":0.0,"color":"","id":"B00099E4-98CC-43c7-89DB-DE4DBDE5CB96","image":"","image_id":"","image_name":"","source_platform":0,"team_id":"","type":"canvas_color"}],"chromas":[],"color_curves":[],"common_mask":[],"digital_humans":[],"drafts":[],"effects":[],"flowers":[],"green_screens":[],"handwrites":[],"hsl":[],"images":[],"log_color_wheels":[],"loudnesses":[],"manual_beautys":[],"manual_deformations":[],"material_animations":[{"animations":[],"id":"5AF4E0D9-615F-4c88-BD05-2D072F1799CF","multi_language_current":"none","type":"sticker_animation"},{"animations":[],"id":"CFB546A0-190E-4d6c-AAF9-0D5CF5DC9A23","multi_language_current":"none","type":"sticker_animation"},{"animations":[],"id":"8679D380-2405-4302-B347-D8F68F990FE9","multi_language_current":"none","type":"sticker_animation"},{"animations":[],"id":"FFE38309-668E-486e-A545-ACA447DC8FDD","multi_language_current":"none","type":"sticker_animation"},{"animations":[],"id":"6C903CFD-5EC8-4f2d-B7D3-05F66611E354","multi_language_current":"none","type":"sticker_animation"},{"animations":[],"id":"F2CF33BF-5C88-4372-BB65-7265C28C158E","multi_language_current":"none","type":"sticker_animation"},{"animations":[],"id":"8B41AFA2-6D1B-4594-A158-A5B0A97EC618","multi_language_current":"none","type":"sticker_animation"},{"animations":[],"id":"6C2F97A9-78A3-4316-AE29-00E2153FE47C","multi_language_current":"none","type":"sticker_animation"},{"animations":[],"id":"4C3C1E3E-0F25-4e36-9714-EB15A32DAD00","multi_language_current":"none","type":"sticker_animation"}],"material_colors":[],"multi_language_refs":[],"placeholder_infos":[{"error_path":"","error_text":"","id":"C25E2D01-8D07-43dc-805F-547FAACB6A69","meta_type":"none","res_path":"","res_text":"","type":"placeholder_info"},{"error_path":"","error_text":"","id":"F38582EE-87A7-45c9-A613-46C647A1CC1F","meta_type":"none","res_path":"","res_text":"","type":"placeholder_info"},{"error_path":"","error_text":"","id":"51EB6DC8-7505-4066-8CD0-248A741CA99D","meta_type":"none","res_path":"","res_text":"","type":"placeholder_info"},{"error_path":"","error_text":"","id":"497AD010-1699-4e3f-8AB4-29840A2B19D2","meta_type":"none","res_path":"","res_text":"","type":"placeholder_info"},{"error_path":"","error_text":"","id":"1594D32F-D4D0-4b87-8BC6-4816CE4B925F","meta_type":"none","res_path":"","res_text":"","type":"placeholder_info"},{"error_path":"","error_text":"","id":"C588FB46-8996-4cd7-814E-56337ED8F300","meta_type":"none","res_path":"","res_text":"","type":"placeholder_info"},{"error_path":"","error_text":"","id":"2FBC911D-7381-4f5c-9D80-C53E5FD812CC","meta_type":"none","res_path":"","res_text":"","type":"placeholder_info"},{"error_path":"","error_text":"","id":"76373E75-0A15-4a0b-84E7-68C62C0D3B22","meta_type":"none","res_path":"","res_text":"","type":"placeholder_info"},{"error_path":"","error_text":"","id":"7BC26471-B02C-43b4-9FDE-8DF7A80D4FC4","meta_type":"none","res_path":"","res_text":"","type":"placeholder_info"},{"error_path":"","error_text":"","id":"75F57A92-10DD-4625-90EF-BD5EA14BF389","meta_type":"none","res_path":"","res_text":"","type":"placeholder_info"},{"error_path":"","error_text":"","id":"F9CBE464-E9A9-45c0-BF0E-0B0908584574","meta_type":"none","res_path":"","res_text":"","type":"placeholder_info"},{"error_path":"","error_text":"","id":"65F30F7A-3225-4bd7-8A16-595B568E45C1","meta_type":"none","res_path":"","res_text":"","type":"placeholder_info"},{"error_path":"","error_text":"","id":"BFA28B5A-D69D-420c-8FC5-B533349B7B0B","meta_type":"none","res_path":"","res_text":"","type":"placeholder_info"},{"error_path":"","error_text":"","id":"7062C78B-2CF4-4b49-A24C-3A5AFC03CC6D","meta_type":"none","res_path":"","res_text":"","type":"placeholder_info"}],"placeholders":[],"plugin_effects":[],"primary_color_wheels":[],"realtime_denoises":[],"shapes":[],"smart_crops":[],"smart_relights":[],"sound_channel_mappings":[{"audio_channel_mapping":0,"id":"EAB7D9E9-B23C-4907-A95F-B20E10FA209D","is_config_open":false,"type":"none"},{"audio_channel_mapping":0,"id":"156FC49C-88D3-46a4-9A19-16347E545C54","is_config_open":false,"type":"none"},{"audio_channel_mapping":0,"id":"E837B65F-FB68-45bf-930C-6A9229D0D4F0","is_config_open":false,"type":"none"},{"audio_channel_mapping":0,"id":"09AAFBDE-331B-4b41-B9B6-C2BF79D44471","is_config_open":false,"type":"none"},{"audio_channel_mapping":0,"id":"E728CA8A-E493-46f1-844C-7F9C3DB28523","is_config_open":false,"type":"none"},{"audio_channel_mapping":0,"id":"51079EB4-5D00-4c10-91AB-8505AE74B8DD","is_config_open":false,"type":"none"},{"audio_channel_mapping":0,"id":"E9DDCF5B-44D1-4787-B347-B452D6D0FD20","is_config_open":false,"type":"none"},{"audio_channel_mapping":0,"id":"2816B8AE-E144-4474-A164-B89474C68C18","is_config_open":false,"type":"none"},{"audio_channel_mapping":0,"id":"35AD53D5-C765-471e-B817-C7D3CD307025","is_config_open":false,"type":"none"},{"audio_channel_mapping":0,"id":"0B73B2D6-3689-485a-83A9-CDC5C671743C","is_config_open":false,"type":"none"},{"audio_channel_mapping":0,"id":"E712D1AC-FB99-4394-9A57-CC24E9311D4A","is_config_open":false,"type":"none"},{"audio_channel_mapping":0,"id":"BFCB7A67-0E0D-42d1-8BF0-7FCEA689BC97","is_config_open":false,"type":"none"},{"audio_channel_mapping":0,"id":"F2BE4D36-903E-4405-ACD0-0153843E687B","is_config_open":false,"type":"none"},{"audio_channel_mapping":0,"id":"5F432916-4D6E-4b16-9BC3-3A77075CB84C","is_config_open":false,"type":"none"}],"speeds":[{"curve_speed":null,"id":"9CD26029-525F-40eb-B3A9-6C51DF860EAB","mode":0,"speed":1.0,"type":"speed"},{"curve_speed":null,"id":"910FC91E-CA67-4566-A1DE-04F6CF03D445","mode":0,"speed":1.0,"type":"speed"},{"curve_speed":null,"id":"AB08C2F7-CD15-4cec-BDE1-959FA65783D9","mode":0,"speed":1.0,"type":"speed"},{"curve_speed":null,"id":"17B41C8A-03E8-4429-B336-94639862B3A1","mode":0,"speed":1.0,"type":"speed"},{"curve_speed":null,"id":"EFB8DE84-2311-41fe-AEBC-6E4D37A4B736","mode":0,"speed":1.0,"type":"speed"},{"curve_speed":null,"id":"46AF7973-53C2-4067-9DB1-3C2C23DA3C33","mode":0,"speed":1.0,"type":"speed"},{"curve_speed":null,"id":"42E38562-0936-4c46-9B0A-070D773C7D28","mode":0,"speed":1.0,"type":"speed"},{"curve_speed":null,"id":"3C42988A-8669-4e29-9384-55EC51017C0B","mode":0,"speed":1.0,"type":"speed"},{"curve_speed":null,"id":"A3C39BE3-D24E-44ea-B768-9BFEF44C268F","mode":0,"speed":1.0,"type":"speed"},{"curve_speed":null,"id":"18EB4446-5CBA-4759-9E47-98D728CAD683","mode":0,"speed":1.0,"type":"speed"},{"curve_speed":null,"id":"5F98BA74-B4F6-42ff-856E-0E908852710D","mode":0,"speed":1.0,"type":"speed"},{"curve_speed":null,"id":"C1D60249-517F-4d0f-9FD9-518469526A31","mode":0,"speed":1.0,"type":"speed"},{"curve_speed":null,"id":"46D69ED8-33AA-4af2-9A3E-4575AC14257C","mode":0,"speed":1.0,"type":"speed"},{"curve_speed":null,"id":"D4A87F55-ABC8-48f0-A604-3AE575ED5663","mode":0,"speed":1.0,"type":"speed"}],"stickers":[],"tail_leaders":[],"text_templates":[],"texts":[],"time_marks":[],"transitions":[{"category_id":"27186","category_name":"hot3","duration":2466666,"effect_id":"9290992","id":"5DC0C895-A90A-45c7-ACF7-D0CBAFB9142B","is_overlap":true,"name":"Then and Now","path":"C:/Users/Computer/AppData/Local/CapCut/User Data/Cache/effect/9290992/ce3cfe333baf3493f6a3714c08eaae12","platform":"all","request_id":"02173907891497900000000000000000000ffff0a00a6e0c7a7b6","resource_id":"7012818976015127041","source_platform":0,"third_resource_id":"0","type":"transition"},{"category_id":"27186","category_name":"Trending","duration":933333,"effect_id":"9290994","id":"A6EC036F-AD5C-4be4-90B0-E4916537B27C","is_overlap":true,"name":"Dissolve","path":"C:/Users/Computer/AppData/Local/CapCut/User Data/Cache/effect/9290994/986161b2af25f7aa752278aa8b39c7b7","platform":"all","request_id":"02173907891497900000000000000000000ffff0a00a6e0c7a7b6","resource_id":"6724846004274729480","source_platform":0,"third_resource_id":"0","type":"transition"},{"category_id":"27186","category_name":"Trending","duration":666666,"effect_id":"9290994","id":"8DA0E333-DBDA-4b38-8356-E7CAA881745A","is_overlap":true,"name":"Dissolve","path":"C:/Users/Computer/AppData/Local/CapCut/User Data/Cache/effect/9290994/986161b2af25f7aa752278aa8b39c7b7","platform":"all","request_id":"02173907891497900000000000000000000ffff0a00a6e0c7a7b6","resource_id":"6724846004274729480","source_platform":0,"third_resource_id":"0","type":"transition"},{"category_id":"123456","category_name":"Transitions","duration":2533333,"effect_id":"9290996","id":"DD26B45E-2B29-4f60-9A41-CF22D3ED3637","is_overlap":false,"name":"White smoke","path":"C:/Users/Computer/AppData/Local/CapCut/User Data/Cache/effect/9290996/9b679b32ec03c42932fa37b10c141bda","platform":"all","request_id":"02173907891497900000000000000000000ffff0a00a6e0c7a7b6","resource_id":"6886274983962612226","source_platform":0,"third_resource_id":"0","type":"transition"},{"category_id":"123456","category_name":"Transitions","duration":1733333,"effect_id":"42367434","id":"CD2DF359-C0B6-42c5-BC34-F1CF47A60802","is_overlap":true,"name":"Shake II","path":"C:/Users/Computer/AppData/Local/CapCut/User Data/Cache/effect/42367434/813875703746cf85379610ce150eaade","platform":"all","request_id":"02173907891497900000000000000000000ffff0a00a6e0c7a7b6","resource_id":"7252670609811837442","source_platform":0,"third_resource_id":"0","type":"transition"},{"category_id":"123456","category_name":"Transitions","duration":466666,"effect_id":"9290995","id":"DCBC7275-1B13-4beb-9702-0BE5BFF19592","is_overlap":false,"name":"Black Fade","path":"C:/Users/Computer/AppData/Local/CapCut/User Data/Cache/effect/9290995/3bca53e9f3dfa2c184fbee96438ea097","platform":"all","request_id":"02173907891497900000000000000000000ffff0a00a6e0c7a7b6","resource_id":"6724239388189921806","source_platform":0,"third_resource_id":"0","type":"transition"}],"video_effects":[],"video_trackings":[],"videos":[{"aigc_history_id":"","aigc_item_id":"","aigc_type":"none","audio_fade":null,"beauty_body_preset_id":"","beauty_face_auto_preset":{"name":"","preset_id":"","rate_map":""},"beauty_face_auto_preset_infos":[],"beauty_face_preset_infos":[],"cartoon_path":"","category_id":"","category_name":"local","check_flag":62978047,"crop":{"lower_left_x":0.0,"lower_left_y":1.0,"lower_right_x":1.0,"lower_right_y":1.0,"upper_left_x":0.0,"upper_left_y":0.0,"upper_right_x":1.0,"upper_right_y":0.0},"crop_ratio":"free","crop_scale":1.0,"duration":92166666,"extra_type_option":0,"formula_id":"","freeze":null,"has_audio":true,"has_sound_separated":false,"height":1080,"id":"9AA41F99-049E-4f4f-8472-BF81A0379200","intensifies_audio_path":"","intensifies_path":"","is_ai_generate_content":false,"is_copyright":false,"is_text_edit_overdub":false,"is_unified_beauty_mode":false,"live_photo_cover_path":"","live_photo_timestamp":-1,"local_id":"","local_material_from":"","local_material_id":"e8e7a3e9-b702-46f6-8145-5ee077f942dc","material_id":"","material_name":"damp.mp4","material_url":"","matting":{"custom_matting_id":"","enable_matting_stroke":false,"expansion":0,"feather":0,"flag":0,"has_use_quick_brush":false,"has_use_quick_eraser":false,"interactiveTime":[],"path":"","reverse":false,"strokes":[]},"media_path":"","multi_camera_info":null,"object_locked":null,"origin_material_id":"","path":"C:/Users/Computer/dev/music/maven.github-repo-downloader-demo/target/mixcraft.damp/damp.mp4","picture_from":"none","picture_set_category_id":"","picture_set_category_name":"","request_id":"","reverse_intensifies_path":"","reverse_path":"","smart_match_info":null,"smart_motion":null,"source":0,"source_platform":0,"stable":{"matrix_path":"","stable_level":0,"time_range":{"duration":0,"start":0}},"team_id":"","type":"video","video_algorithm":{"ai_background_configs":[],"ai_expression_driven":null,"ai_motion_driven":null,"aigc_generate":null,"algorithms":[],"complement_frame_config":null,"deflicker":null,"gameplay_configs":[],"motion_blur_config":null,"mouth_shape_driver":null,"noise_reduction":null,"path":"","quality_enhance":null,"smart_complement_frame":null,"super_resolution":null,"time_range":{"duration":12966666,"start":0}},"width":1080},{"aigc_history_id":"","aigc_item_id":"","aigc_type":"none","audio_fade":null,"beauty_body_preset_id":"","beauty_face_auto_preset":{"name":"","preset_id":"","rate_map":""},"beauty_face_auto_preset_infos":[],"beauty_face_preset_infos":[],"cartoon_path":"","category_id":"","category_name":"local","check_flag":62978047,"crop":{"lower_left_x":0.0,"lower_left_y":1.0,"lower_right_x":1.0,"lower_right_y":1.0,"upper_left_x":0.0,"upper_left_y":0.0,"upper_right_x":1.0,"upper_right_y":0.0},"crop_ratio":"free","crop_scale":1.0,"duration":92166666,"extra_type_option":0,"formula_id":"","freeze":null,"has_audio":true,"has_sound_separated":false,"height":1080,"id":"24B874D9-958B-4e6b-871C-AD1E6B37370C","intensifies_audio_path":"","intensifies_path":"","is_ai_generate_content":false,"is_copyright":false,"is_text_edit_overdub":false,"is_unified_beauty_mode":false,"live_photo_cover_path":"","live_photo_timestamp":-1,"local_id":"","local_material_from":"","local_material_id":"e8e7a3e9-b702-46f6-8145-5ee077f942dc","material_id":"","material_name":"damp.mp4","material_url":"","matting":{"custom_matting_id":"","enable_matting_stroke":false,"expansion":0,"feather":0,"flag":0,"has_use_quick_brush":false,"has_use_quick_eraser":false,"interactiveTime":[],"path":"","reverse":false,"strokes":[]},"media_path":"","multi_camera_info":null,"object_locked":null,"origin_material_id":"","path":"C:/Users/Computer/dev/music/maven.github-repo-downloader-demo/target/mixcraft.damp/damp.mp4","picture_from":"none","picture_set_category_id":"","picture_set_category_name":"","request_id":"","reverse_intensifies_path":"","reverse_path":"","smart_match_info":null,"smart_motion":null,"source":0,"source_platform":0,"stable":{"matrix_path":"","stable_level":0,"time_range":{"duration":0,"start":0}},"team_id":"","type":"video","video_algorithm":{"ai_background_configs":[],"ai_expression_driven":null,"ai_motion_driven":null,"aigc_generate":null,"algorithms":[],"complement_frame_config":null,"deflicker":null,"gameplay_configs":[],"motion_blur_config":null,"mouth_shape_driver":null,"noise_reduction":null,"path":"","quality_enhance":null,"smart_complement_frame":null,"super_resolution":null,"time_range":{"duration":15850000,"start":6966666}},"width":1080},{"aigc_history_id":"","aigc_item_id":"","aigc_type":"none","audio_fade":null,"beauty_body_preset_id":"","beauty_face_auto_preset":{"name":"","preset_id":"","rate_map":""},"beauty_face_auto_preset_infos":[],"beauty_face_preset_infos":[],"cartoon_path":"","category_id":"","category_name":"local","check_flag":62978047,"crop":{"lower_left_x":0.0,"lower_left_y":1.0,"lower_right_x":1.0,"lower_right_y":1.0,"upper_left_x":0.0,"upper_left_y":0.0,"upper_right_x":1.0,"upper_right_y":0.0},"crop_ratio":"free","crop_scale":1.0,"duration":92166666,"extra_type_option":0,"formula_id":"","freeze":null,"has_audio":true,"has_sound_separated":false,"height":1080,"id":"1E3E1C13-FF6D-48e7-87A4-3580D97E6309","intensifies_audio_path":"","intensifies_path":"","is_ai_generate_content":false,"is_copyright":false,"is_text_edit_overdub":false,"is_unified_beauty_mode":false,"live_photo_cover_path":"","live_photo_timestamp":-1,"local_id":"","local_material_from":"","local_material_id":"e8e7a3e9-b702-46f6-8145-5ee077f942dc","material_id":"","material_name":"damp.mp4","material_url":"","matting":{"custom_matting_id":"","enable_matting_stroke":false,"expansion":0,"feather":0,"flag":0,"has_use_quick_brush":false,"has_use_quick_eraser":false,"interactiveTime":[],"path":"","reverse":false,"strokes":[]},"media_path":"","multi_camera_info":null,"object_locked":null,"origin_material_id":"","path":"C:/Users/Computer/dev/music/maven.github-repo-downloader-demo/target/mixcraft.damp/damp.mp4","picture_from":"none","picture_set_category_id":"","picture_set_category_name":"","request_id":"","reverse_intensifies_path":"","reverse_path":"","smart_match_info":null,"smart_motion":null,"source":0,"source_platform":0,"stable":{"matrix_path":"","stable_level":0,"time_range":{"duration":0,"start":0}},"team_id":"","type":"video","video_algorithm":{"ai_background_configs":[],"ai_expression_driven":null,"ai_motion_driven":null,"aigc_generate":null,"algorithms":[],"complement_frame_config":null,"deflicker":null,"gameplay_configs":[],"motion_blur_config":null,"mouth_shape_driver":null,"noise_reduction":null,"path":"","quality_enhance":null,"smart_complement_frame":null,"super_resolution":null,"time_range":{"duration":13600000,"start":17433333}},"width":1080},{"aigc_history_id":"","aigc_item_id":"","aigc_type":"none","audio_fade":null,"beauty_body_preset_id":"","beauty_face_auto_preset":{"name":"","preset_id":"","rate_map":""},"beauty_face_auto_preset_infos":[],"beauty_face_preset_infos":[],"cartoon_path":"","category_id":"","category_name":"local","check_flag":62978047,"crop":{"lower_left_x":0.0,"lower_left_y":1.0,"lower_right_x":1.0,"lower_right_y":1.0,"upper_left_x":0.0,"upper_left_y":0.0,"upper_right_x":1.0,"upper_right_y":0.0},"crop_ratio":"free","crop_scale":1.0,"duration":92166666,"extra_type_option":0,"formula_id":"","freeze":null,"has_audio":true,"has_sound_separated":false,"height":1080,"id":"D7C693AC-AF01-4bb3-82BE-69FD8310B8D0","intensifies_audio_path":"","intensifies_path":"","is_ai_generate_content":false,"is_copyright":false,"is_text_edit_overdub":false,"is_unified_beauty_mode":false,"live_photo_cover_path":"","live_photo_timestamp":-1,"local_id":"","local_material_from":"","local_material_id":"e8e7a3e9-b702-46f6-8145-5ee077f942dc","material_id":"","material_name":"damp.mp4","material_url":"","matting":{"custom_matting_id":"","enable_matting_stroke":false,"expansion":0,"feather":0,"flag":0,"has_use_quick_brush":false,"has_use_quick_eraser":false,"interactiveTime":[],"path":"","reverse":false,"strokes":[]},"media_path":"","multi_camera_info":null,"object_locked":null,"origin_material_id":"","path":"C:/Users/Computer/dev/music/maven.github-repo-downloader-demo/target/mixcraft.damp/damp.mp4","picture_from":"none","picture_set_category_id":"","picture_set_category_name":"","request_id":"","reverse_intensifies_path":"","reverse_path":"","smart_match_info":null,"smart_motion":null,"source":0,"source_platform":0,"stable":{"matrix_path":"","stable_level":0,"time_range":{"duration":0,"start":0}},"team_id":"","type":"video","video_algorithm":{"ai_background_configs":[],"ai_expression_driven":null,"ai_motion_driven":null,"aigc_generate":null,"algorithms":[],"complement_frame_config":null,"deflicker":null,"gameplay_configs":[],"motion_blur_config":null,"mouth_shape_driver":null,"noise_reduction":null,"path":"","quality_enhance":null,"smart_complement_frame":null,"super_resolution":null,"time_range":{"duration":12366665,"start":30500001}},"width":1080},{"aigc_history_id":"","aigc_item_id":"","aigc_type":"none","audio_fade":null,"beauty_body_preset_id":"","beauty_face_auto_preset":{"name":"","preset_id":"","rate_map":""},"beauty_face_auto_preset_infos":[],"beauty_face_preset_infos":[],"cartoon_path":"","category_id":"","category_name":"local","check_flag":62978047,"crop":{"lower_left_x":0.0,"lower_left_y":1.0,"lower_right_x":1.0,"lower_right_y":1.0,"upper_left_x":0.0,"upper_left_y":0.0,"upper_right_x":1.0,"upper_right_y":0.0},"crop_ratio":"free","crop_scale":1.0,"duration":92166666,"extra_type_option":0,"formula_id":"","freeze":null,"has_audio":true,"has_sound_separated":false,"height":1080,"id":"4056A4FC-B28B-488d-8A73-193B53947426","intensifies_audio_path":"","intensifies_path":"","is_ai_generate_content":false,"is_copyright":false,"is_text_edit_overdub":false,"is_unified_beauty_mode":false,"live_photo_cover_path":"","live_photo_timestamp":-1,"local_id":"","local_material_from":"","local_material_id":"e8e7a3e9-b702-46f6-8145-5ee077f942dc","material_id":"","material_name":"damp.mp4","material_url":"","matting":{"custom_matting_id":"","enable_matting_stroke":false,"expansion":0,"feather":0,"flag":0,"has_use_quick_brush":false,"has_use_quick_eraser":false,"interactiveTime":[],"path":"","reverse":false,"strokes":[]},"media_path":"","multi_camera_info":null,"object_locked":null,"origin_material_id":"","path":"C:/Users/Computer/dev/music/maven.github-repo-downloader-demo/target/mixcraft.damp/damp.mp4","picture_from":"none","picture_set_category_id":"","picture_set_category_name":"","request_id":"","reverse_intensifies_path":"","reverse_path":"","smart_match_info":null,"smart_motion":null,"source":0,"source_platform":0,"stable":{"matrix_path":"","stable_level":0,"time_range":{"duration":0,"start":0}},"team_id":"","type":"video","video_algorithm":{"ai_background_configs":[],"ai_expression_driven":null,"ai_motion_driven":null,"aigc_generate":null,"algorithms":[],"complement_frame_config":null,"deflicker":null,"gameplay_configs":[],"motion_blur_config":null,"mouth_shape_driver":null,"noise_reduction":null,"path":"","quality_enhance":null,"smart_complement_frame":null,"super_resolution":null,"time_range":{"duration":15266667,"start":36866666}},"width":1080},{"aigc_history_id":"","aigc_item_id":"","aigc_type":"none","audio_fade":null,"beauty_body_preset_id":"","beauty_face_auto_preset":{"name":"","preset_id":"","rate_map":""},"beauty_face_auto_preset_infos":[],"beauty_face_preset_infos":[],"cartoon_path":"","category_id":"","category_name":"local","check_flag":62978047,"crop":{"lower_left_x":0.0,"lower_left_y":1.0,"lower_right_x":1.0,"lower_right_y":1.0,"upper_left_x":0.0,"upper_left_y":0.0,"upper_right_x":1.0,"upper_right_y":0.0},"crop_ratio":"free","crop_scale":1.0,"duration":10000000,"extra_type_option":0,"formula_id":"","freeze":null,"has_audio":false,"has_sound_separated":false,"height":480,"id":"F2C15890-DD23-4fea-B37A-141E20A55E0F","intensifies_audio_path":"","intensifies_path":"","is_ai_generate_content":false,"is_copyright":false,"is_text_edit_overdub":false,"is_unified_beauty_mode":false,"live_photo_cover_path":"","live_photo_timestamp":-1,"local_id":"","local_material_from":"","local_material_id":"7225e192-4cb2-4f15-9250-fe8aab0dd388","material_id":"","material_name":"1_20250209_1558_Underwater Encounter_storyboard_01jkp838crfjv9g47ddbgxj0aw.mp4","material_url":"","matting":{"custom_matting_id":"","enable_matting_stroke":false,"expansion":0,"feather":0,"flag":0,"has_use_quick_brush":false,"has_use_quick_eraser":false,"interactiveTime":[],"path":"","reverse":false,"strokes":[]},"media_path":"","multi_camera_info":null,"object_locked":null,"origin_material_id":"","path":"C:/Users/Computer/Downloads/damp/1_20250209_1558_Underwater Encounter_storyboard_01jkp838crfjv9g47ddbgxj0aw.mp4","picture_from":"none","picture_set_category_id":"","picture_set_category_name":"","request_id":"","reverse_intensifies_path":"","reverse_path":"","smart_match_info":null,"smart_motion":null,"source":0,"source_platform":0,"stable":{"matrix_path":"","stable_level":0,"time_range":{"duration":0,"start":0}},"team_id":"","type":"video","video_algorithm":{"ai_background_configs":[],"ai_expression_driven":null,"ai_motion_driven":null,"aigc_generate":null,"algorithms":[],"complement_frame_config":null,"deflicker":null,"gameplay_configs":[],"motion_blur_config":null,"mouth_shape_driver":null,"noise_reduction":null,"path":"","quality_enhance":null,"smart_complement_frame":null,"super_resolution":null,"time_range":{"duration":8666666,"start":0}},"width":480},{"aigc_history_id":"","aigc_item_id":"","aigc_type":"none","audio_fade":null,"beauty_body_preset_id":"","beauty_face_auto_preset":{"name":"","preset_id":"","rate_map":""},"beauty_face_auto_preset_infos":[],"beauty_face_preset_infos":[],"cartoon_path":"","category_id":"","category_name":"local","check_flag":62978047,"crop":{"lower_left_x":0.0,"lower_left_y":1.0,"lower_right_x":1.0,"lower_right_y":1.0,"upper_left_x":0.0,"upper_left_y":0.0,"upper_right_x":1.0,"upper_right_y":0.0},"crop_ratio":"free","crop_scale":1.0,"duration":10000000,"extra_type_option":0,"formula_id":"","freeze":null,"has_audio":false,"has_sound_separated":false,"height":480,"id":"1F6D84CD-E54D-4019-933E-28643565D8B6","intensifies_audio_path":"","intensifies_path":"","is_ai_generate_content":false,"is_copyright":false,"is_text_edit_overdub":false,"is_unified_beauty_mode":false,"live_photo_cover_path":"","live_photo_timestamp":-1,"local_id":"","local_material_from":"","local_material_id":"7225e192-4cb2-4f15-9250-fe8aab0dd388","material_id":"","material_name":"1_20250209_1558_Underwater Encounter_storyboard_01jkp838crfjv9g47ddbgxj0aw.mp4","material_url":"","matting":{"custom_matting_id":"","enable_matting_stroke":false,"expansion":0,"feather":0,"flag":0,"has_use_quick_brush":false,"has_use_quick_eraser":false,"interactiveTime":[],"path":"","reverse":false,"strokes":[]},"media_path":"","multi_camera_info":null,"object_locked":null,"origin_material_id":"","path":"C:/Users/Computer/Downloads/damp/1_20250209_1558_Underwater Encounter_storyboard_01jkp838crfjv9g47ddbgxj0aw.mp4","picture_from":"none","picture_set_category_id":"","picture_set_category_name":"","request_id":"","reverse_intensifies_path":"","reverse_path":"","smart_match_info":null,"smart_motion":null,"source":0,"source_platform":0,"stable":{"matrix_path":"","stable_level":0,"time_range":{"duration":0,"start":0}},"team_id":"","type":"video","video_algorithm":{"ai_background_configs":[],"ai_expression_driven":null,"ai_motion_driven":null,"aigc_generate":null,"algorithms":[],"complement_frame_config":null,"deflicker":null,"gameplay_configs":[],"motion_blur_config":null,"mouth_shape_driver":null,"noise_reduction":null,"path":"","quality_enhance":null,"smart_complement_frame":null,"super_resolution":null,"time_range":{"duration":7333334,"start":2666666}},"width":480},{"aigc_history_id":"","aigc_item_id":"","aigc_type":"none","audio_fade":null,"beauty_body_preset_id":"","beauty_face_auto_preset":{"name":"","preset_id":"","rate_map":""},"beauty_face_auto_preset_infos":[],"beauty_face_preset_infos":[],"cartoon_path":"","category_id":"","category_name":"local","check_flag":62978047,"crop":{"lower_left_x":0.0,"lower_left_y":1.0,"lower_right_x":1.0,"lower_right_y":1.0,"upper_left_x":0.0,"upper_left_y":0.0,"upper_right_x":1.0,"upper_right_y":0.0},"crop_ratio":"free","crop_scale":1.0,"duration":92166666,"extra_type_option":0,"formula_id":"","freeze":null,"has_audio":true,"has_sound_separated":false,"height":1080,"id":"B25FD30F-7263-471d-B562-80CFE6CECBAB","intensifies_audio_path":"","intensifies_path":"","is_ai_generate_content":false,"is_copyright":false,"is_text_edit_overdub":false,"is_unified_beauty_mode":false,"live_photo_cover_path":"","live_photo_timestamp":-1,"local_id":"","local_material_from":"","local_material_id":"e8e7a3e9-b702-46f6-8145-5ee077f942dc","material_id":"","material_name":"damp.mp4","material_url":"","matting":{"custom_matting_id":"","enable_matting_stroke":false,"expansion":0,"feather":0,"flag":0,"has_use_quick_brush":false,"has_use_quick_eraser":false,"interactiveTime":[],"path":"","reverse":false,"strokes":[]},"media_path":"","multi_camera_info":null,"object_locked":null,"origin_material_id":"","path":"C:/Users/Computer/dev/music/maven.github-repo-downloader-demo/target/mixcraft.damp/damp.mp4","picture_from":"none","picture_set_category_id":"","picture_set_category_name":"","request_id":"","reverse_intensifies_path":"","reverse_path":"","smart_match_info":null,"smart_motion":null,"source":0,"source_platform":0,"stable":{"matrix_path":"","stable_level":0,"time_range":{"duration":0,"start":0}},"team_id":"","type":"video","video_algorithm":{"ai_background_configs":[],"ai_expression_driven":null,"ai_motion_driven":null,"aigc_generate":null,"algorithms":[],"complement_frame_config":null,"deflicker":null,"gameplay_configs":[],"motion_blur_config":null,"mouth_shape_driver":null,"noise_reduction":null,"path":"","quality_enhance":null,"smart_complement_frame":null,"super_resolution":null,"time_range":{"duration":15100000,"start":46966666}},"width":1080},{"aigc_history_id":"","aigc_item_id":"","aigc_type":"none","audio_fade":null,"beauty_body_preset_id":"","beauty_face_auto_preset":{"name":"","preset_id":"","rate_map":""},"beauty_face_auto_preset_infos":[],"beauty_face_preset_infos":[],"cartoon_path":"","category_id":"","category_name":"local","check_flag":62978047,"crop":{"lower_left_x":0.0,"lower_left_y":1.0,"lower_right_x":1.0,"lower_right_y":1.0,"upper_left_x":0.0,"upper_left_y":0.0,"upper_right_x":1.0,"upper_right_y":0.0},"crop_ratio":"free","crop_scale":1.0,"duration":10000000,"extra_type_option":0,"formula_id":"","freeze":null,"has_audio":false,"has_sound_separated":false,"height":480,"id":"5A327CCC-188C-4d35-A473-13E5BDFE3804","intensifies_audio_path":"","intensifies_path":"","is_ai_generate_content":false,"is_copyright":false,"is_text_edit_overdub":false,"is_unified_beauty_mode":false,"live_photo_cover_path":"","live_photo_timestamp":-1,"local_id":"","local_material_from":"","local_material_id":"4a35c5fe-7c91-499f-996d-20b756eda4f6","material_id":"","material_name":"2_20250209_0226_Captain's Commanding Presence_storyboard_01jkmskntge12amrxrbhjmpbwb(1).mp4","material_url":"","matting":{"custom_matting_id":"","enable_matting_stroke":false,"expansion":0,"feather":0,"flag":0,"has_use_quick_brush":false,"has_use_quick_eraser":false,"interactiveTime":[],"path":"","reverse":false,"strokes":[]},"media_path":"","multi_camera_info":null,"object_locked":null,"origin_material_id":"","path":"C:/Users/Computer/Downloads/damp/2_20250209_0226_Captain's Commanding Presence_storyboard_01jkmskntge12amrxrbhjmpbwb(1).mp4","picture_from":"none","picture_set_category_id":"","picture_set_category_name":"","request_id":"","reverse_intensifies_path":"","reverse_path":"","smart_match_info":null,"smart_motion":null,"source":0,"source_platform":0,"stable":{"matrix_path":"","stable_level":0,"time_range":{"duration":0,"start":0}},"team_id":"","type":"video","video_algorithm":{"ai_background_configs":[],"ai_expression_driven":null,"ai_motion_driven":null,"aigc_generate":null,"algorithms":[],"complement_frame_config":null,"deflicker":null,"gameplay_configs":[],"motion_blur_config":null,"mouth_shape_driver":null,"noise_reduction":null,"path":"","quality_enhance":null,"smart_complement_frame":null,"super_resolution":null,"time_range":{"duration":10000000,"start":0}},"width":480},{"aigc_history_id":"","aigc_item_id":"","aigc_type":"none","audio_fade":null,"beauty_body_preset_id":"","beauty_face_auto_preset":{"name":"","preset_id":"","rate_map":""},"beauty_face_auto_preset_infos":[],"beauty_face_preset_infos":[],"cartoon_path":"","category_id":"","category_name":"local","check_flag":62978047,"crop":{"lower_left_x":0.0,"lower_left_y":1.0,"lower_right_x":1.0,"lower_right_y":1.0,"upper_left_x":0.0,"upper_left_y":0.0,"upper_right_x":1.0,"upper_right_y":0.0},"crop_ratio":"free","crop_scale":1.0,"duration":92166666,"extra_type_option":0,"formula_id":"","freeze":null,"has_audio":true,"has_sound_separated":false,"height":1080,"id":"DAC5334F-169C-4e01-8A02-1ED2DFBB496E","intensifies_audio_path":"","intensifies_path":"","is_ai_generate_content":false,"is_copyright":false,"is_text_edit_overdub":false,"is_unified_beauty_mode":false,"live_photo_cover_path":"","live_photo_timestamp":-1,"local_id":"","local_material_from":"","local_material_id":"e8e7a3e9-b702-46f6-8145-5ee077f942dc","material_id":"","material_name":"damp.mp4","material_url":"","matting":{"custom_matting_id":"","enable_matting_stroke":false,"expansion":0,"feather":0,"flag":0,"has_use_quick_brush":false,"has_use_quick_eraser":false,"interactiveTime":[],"path":"","reverse":false,"strokes":[]},"media_path":"","multi_camera_info":null,"object_locked":null,"origin_material_id":"","path":"C:/Users/Computer/dev/music/maven.github-repo-downloader-demo/target/mixcraft.damp/damp.mp4","picture_from":"none","picture_set_category_id":"","picture_set_category_name":"","request_id":"","reverse_intensifies_path":"","reverse_path":"","smart_match_info":null,"smart_motion":null,"source":0,"source_platform":0,"stable":{"matrix_path":"","stable_level":0,"time_range":{"duration":0,"start":0}},"team_id":"","type":"video","video_algorithm":{"ai_background_configs":[],"ai_expression_driven":null,"ai_motion_driven":null,"aigc_generate":null,"algorithms":[],"complement_frame_config":null,"deflicker":null,"gameplay_configs":[],"motion_blur_config":null,"mouth_shape_driver":null,"noise_reduction":null,"path":"","quality_enhance":null,"smart_complement_frame":null,"super_resolution":null,"time_range":{"duration":7233334,"start":65666666}},"width":1080},{"aigc_history_id":"","aigc_item_id":"","aigc_type":"none","audio_fade":null,"beauty_body_preset_id":"","beauty_face_auto_preset":{"name":"","preset_id":"","rate_map":""},"beauty_face_auto_preset_infos":[],"beauty_face_preset_infos":[],"cartoon_path":"","category_id":"","category_name":"local","check_flag":62978047,"crop":{"lower_left_x":0.0,"lower_left_y":1.0,"lower_right_x":1.0,"lower_right_y":1.0,"upper_left_x":0.0,"upper_left_y":0.0,"upper_right_x":1.0,"upper_right_y":0.0},"crop_ratio":"free","crop_scale":1.0,"duration":10000000,"extra_type_option":0,"formula_id":"","freeze":null,"has_audio":false,"has_sound_separated":false,"height":480,"id":"D0E84103-40FB-4ad1-BE9D-9FDBE9D7B148","intensifies_audio_path":"","intensifies_path":"","is_ai_generate_content":false,"is_copyright":false,"is_text_edit_overdub":false,"is_unified_beauty_mode":false,"live_photo_cover_path":"","live_photo_timestamp":-1,"local_id":"","local_material_from":"","local_material_id":"c2d2677d-6724-49ec-b309-71f43819f929","material_id":"","material_name":"3_20250209_1651_Mystical Underwater Mermaid_storyboard_01jkpb4n00fwk8sg324hqq7gze.mp4","material_url":"","matting":{"custom_matting_id":"","enable_matting_stroke":false,"expansion":0,"feather":0,"flag":0,"has_use_quick_brush":false,"has_use_quick_eraser":false,"interactiveTime":[],"path":"","reverse":false,"strokes":[]},"media_path":"","multi_camera_info":null,"object_locked":null,"origin_material_id":"","path":"C:/Users/Computer/Downloads/damp/3_20250209_1651_Mystical Underwater Mermaid_storyboard_01jkpb4n00fwk8sg324hqq7gze.mp4","picture_from":"none","picture_set_category_id":"","picture_set_category_name":"","request_id":"","reverse_intensifies_path":"","reverse_path":"","smart_match_info":null,"smart_motion":null,"source":0,"source_platform":0,"stable":{"matrix_path":"","stable_level":0,"time_range":{"duration":0,"start":0}},"team_id":"","type":"video","video_algorithm":{"ai_background_configs":[],"ai_expression_driven":null,"ai_motion_driven":null,"aigc_generate":null,"algorithms":[],"complement_frame_config":null,"deflicker":null,"gameplay_configs":[],"motion_blur_config":null,"mouth_shape_driver":null,"noise_reduction":null,"path":"","quality_enhance":null,"smart_complement_frame":null,"super_resolution":null,"time_range":null},"width":480},{"aigc_history_id":"","aigc_item_id":"","aigc_type":"none","audio_fade":null,"beauty_body_preset_id":"","beauty_face_auto_preset":{"name":"","preset_id":"","rate_map":""},"beauty_face_auto_preset_infos":[],"beauty_face_preset_infos":[],"cartoon_path":"","category_id":"","category_name":"local","check_flag":62978047,"crop":{"lower_left_x":0.0,"lower_left_y":1.0,"lower_right_x":1.0,"lower_right_y":1.0,"upper_left_x":0.0,"upper_left_y":0.0,"upper_right_x":1.0,"upper_right_y":0.0},"crop_ratio":"free","crop_scale":1.0,"duration":10000000,"extra_type_option":0,"formula_id":"","freeze":null,"has_audio":false,"has_sound_separated":false,"height":480,"id":"0613462A-032D-4ae7-A0C7-AC56AE97D86D","intensifies_audio_path":"","intensifies_path":"","is_ai_generate_content":false,"is_copyright":false,"is_text_edit_overdub":false,"is_unified_beauty_mode":false,"live_photo_cover_path":"","live_photo_timestamp":-1,"local_id":"","local_material_from":"","local_material_id":"38988de0-c42c-4d5f-93a2-89d2d1211952","material_id":"","material_name":"4_20250209_1657_Deep Sea Exploration_storyboard_01jkpbea1eecj84cjgzwtr7wfc.mp4","material_url":"","matting":{"custom_matting_id":"","enable_matting_stroke":false,"expansion":0,"feather":0,"flag":0,"has_use_quick_brush":false,"has_use_quick_eraser":false,"interactiveTime":[],"path":"","reverse":false,"strokes":[]},"media_path":"","multi_camera_info":null,"object_locked":null,"origin_material_id":"","path":"C:/Users/Computer/Downloads/damp/4_20250209_1657_Deep Sea Exploration_storyboard_01jkpbea1eecj84cjgzwtr7wfc.mp4","picture_from":"none","picture_set_category_id":"","picture_set_category_name":"","request_id":"","reverse_intensifies_path":"","reverse_path":"","smart_match_info":null,"smart_motion":null,"source":0,"source_platform":0,"stable":{"matrix_path":"","stable_level":0,"time_range":{"duration":0,"start":0}},"team_id":"","type":"video","video_algorithm":{"ai_background_configs":[],"ai_expression_driven":null,"ai_motion_driven":null,"aigc_generate":null,"algorithms":[],"complement_frame_config":null,"deflicker":null,"gameplay_configs":[],"motion_blur_config":null,"mouth_shape_driver":null,"noise_reduction":null,"path":"","quality_enhance":null,"smart_complement_frame":null,"super_resolution":null,"time_range":{"duration":6733333,"start":0}},"width":480},{"aigc_history_id":"","aigc_item_id":"","aigc_type":"none","audio_fade":null,"beauty_body_preset_id":"","beauty_face_auto_preset":{"name":"","preset_id":"","rate_map":""},"beauty_face_auto_preset_infos":[],"beauty_face_preset_infos":[],"cartoon_path":"","category_id":"","category_name":"local","check_flag":62978047,"crop":{"lower_left_x":0.0,"lower_left_y":1.0,"lower_right_x":1.0,"lower_right_y":1.0,"upper_left_x":0.0,"upper_left_y":0.0,"upper_right_x":1.0,"upper_right_y":0.0},"crop_ratio":"free","crop_scale":1.0,"duration":3000000,"extra_type_option":0,"formula_id":"","freeze":null,"has_audio":true,"has_sound_separated":false,"height":540,"id":"608E1296-71CF-4b51-BE79-7BA66E266AC9","intensifies_audio_path":"","intensifies_path":"","is_ai_generate_content":false,"is_copyright":false,"is_text_edit_overdub":false,"is_unified_beauty_mode":false,"live_photo_cover_path":"","live_photo_timestamp":-1,"local_id":"","local_material_from":"","local_material_id":"f6f84f79-eea9-473f-bff5-fe4e27b2cbac","material_id":"","material_name":"black.mp4","material_url":"","matting":{"custom_matting_id":"","enable_matting_stroke":false,"expansion":0,"feather":0,"flag":0,"has_use_quick_brush":false,"has_use_quick_eraser":false,"interactiveTime":[],"path":"","reverse":false,"strokes":[]},"media_path":"","multi_camera_info":null,"object_locked":null,"origin_material_id":"","path":"C:/Users/Computer/Videos/black.mp4","picture_from":"none","picture_set_category_id":"","picture_set_category_name":"","request_id":"","reverse_intensifies_path":"","reverse_path":"","smart_match_info":null,"smart_motion":null,"source":0,"source_platform":0,"stable":{"matrix_path":"","stable_level":0,"time_range":{"duration":0,"start":0}},"team_id":"","type":"video","video_algorithm":{"ai_background_configs":[],"ai_expression_driven":null,"ai_motion_driven":null,"aigc_generate":null,"algorithms":[],"complement_frame_config":null,"deflicker":null,"gameplay_configs":[],"motion_blur_config":null,"mouth_shape_driver":null,"noise_reduction":null,"path":"","quality_enhance":null,"smart_complement_frame":null,"super_resolution":null,"time_range":null},"width":960}],"vocal_beautifys":[],"vocal_separations":[{"choice":0,"id":"046B9406-E9F8-4e1d-A814-1114845E7312","production_path":"","removed_sounds":[],"time_range":null,"type":"vocal_separation"},{"choice":0,"id":"43E4DACE-8618-4953-852E-2E2D78BC1B9E","production_path":"","removed_sounds":[],"time_range":null,"type":"vocal_separation"},{"choice":0,"id":"93FEB14F-94B3-4f4b-98CF-86516DA6750B","production_path":"","removed_sounds":[],"time_range":null,"type":"vocal_separation"},{"choice":0,"id":"DC28C882-B12C-4577-B2AF-2DDBF1879D8B","production_path":"","removed_sounds":[],"time_range":null,"type":"vocal_separation"},{"choice":0,"id":"158AEEA7-5D78-4333-BB8D-AE708C69FE2F","production_path":"","removed_sounds":[],"time_range":null,"type":"vocal_separation"},{"choice":0,"id":"C805F698-C19E-4daf-A4F4-8704AA8285DC","production_path":"","removed_sounds":[],"time_range":null,"type":"vocal_separation"},{"choice":0,"id":"A53A0D66-F0C8-4970-96A9-36DDAA1DB3BC","production_path":"","removed_sounds":[],"time_range":null,"type":"vocal_separation"},{"choice":0,"id":"F6FE5A5E-F9FA-4532-95E5-8560B6C187BE","production_path":"","removed_sounds":[],"time_range":null,"type":"vocal_separation"},{"choice":0,"id":"DC58A272-8F09-4c39-8533-759A0BE4F190","production_path":"","removed_sounds":[],"time_range":null,"type":"vocal_separation"},{"choice":0,"id":"EB220A5D-9A73-40d4-8636-220CD2778E32","production_path":"","removed_sounds":[],"time_range":null,"type":"vocal_separation"},{"choice":0,"id":"267F8F74-8B83-435e-80F7-65F91871F509","production_path":"","removed_sounds":[],"time_range":null,"type":"vocal_separation"},{"choice":0,"id":"6791A0E7-A38C-41a5-8A36-EDD1540CBA24","production_path":"","removed_sounds":[],"time_range":null,"type":"vocal_separation"},{"choice":0,"id":"93077F3F-B3EA-4011-9DB9-A9EE6C66FFF3","production_path":"","removed_sounds":[],"time_range":null,"type":"vocal_separation"},{"choice":0,"id":"1D3BB46E-FA6D-42d2-95FB-5C6432E7097F","production_path":"","removed_sounds":[],"time_range":null,"type":"vocal_separation"}]},"mutable_config":null,"name":"","new_version":"132.0.0","path":"","platform":{"app_id":359289,"app_source":"cc","app_version":"5.6.0","device_id":"b000ef05ad8a2c8de98905bbc4a2a13d","hard_disk_id":"98697f5b2672733057711c84e4b517c3","mac_address":"09861091e4eef2367b35d8703476edfc,3ab780bc59d11a00e1ba676c31de1115","os":"windows","os_version":"10.0.26100"},"relationships":[],"render_index_track_mode_on":true,"retouch_cover":null,"source":"default","static_cover_image_path":"","time_marks":null,"tracks":[{"attribute":0,"flag":0,"id":"C1AFA008-136D-4dcd-BD32-C1B508452860","is_default_name":true,"name":"","segments":[{"caption_info":null,"cartoon":false,"clip":{"alpha":1.0,"flip":{"horizontal":false,"vertical":false},"rotation":0.0,"scale":{"x":1.0,"y":1.0},"transform":{"x":0.0,"y":0.0}},"color_correct_alg_result":"","common_keyframes":[],"desc":"","digital_human_template_group_id":"","enable_adjust":true,"enable_adjust_mask":false,"enable_color_correct_adjust":false,"enable_color_curves":true,"enable_color_match_adjust":false,"enable_color_wheels":true,"enable_hsl":false,"enable_lut":true,"enable_smart_color_adjust":false,"enable_video_mask":true,"extra_material_refs":["9CD26029-525F-40eb-B3A9-6C51DF860EAB","C25E2D01-8D07-43dc-805F-547FAACB6A69","5DC0C895-A90A-45c7-ACF7-D0CBAFB9142B","1C322956-BD0F-4434-8D39-5B0A645321D3","5AF4E0D9-615F-4c88-BD05-2D072F1799CF","EAB7D9E9-B23C-4907-A95F-B20E10FA209D","046B9406-E9F8-4e1d-A814-1114845E7312"],"group_id":"","hdr_settings":{"intensity":1.0,"mode":1,"nits":1000},"id":"DECF8293-973B-458d-84F2-AB267696E5A2","intensifies_audio":false,"is_loop":false,"is_placeholder":false,"is_tone_modify":false,"keyframe_refs":[],"last_nonzero_volume":0.0,"lyric_keyframes":null,"material_id":"9AA41F99-049E-4f4f-8472-BF81A0379200","raw_segment_id":"","render_index":0,"render_timerange":{"duration":0,"start":0},"responsive_layout":{"enable":false,"horizontal_pos_layout":0,"size_layout":0,"target_follow":"","vertical_pos_layout":0},"reverse":false,"source_timerange":{"duration":9966666,"start":0},"speed":1.0,"state":0,"target_timerange":{"duration":9966666,"start":0},"template_id":"","template_scene":"default","track_attribute":0,"track_render_index":0,"uniform_scale":{"on":true,"value":1.0},"visible":true,"volume":0.0},{"caption_info":null,"cartoon":false,"clip":{"alpha":1.0,"flip":{"horizontal":false,"vertical":false},"rotation":0.0,"scale":{"x":1.0,"y":1.0},"transform":{"x":0.0,"y":0.0}},"color_correct_alg_result":"","common_keyframes":[],"desc":"","digital_human_template_group_id":"","enable_adjust":true,"enable_adjust_mask":false,"enable_color_correct_adjust":false,"enable_color_curves":true,"enable_color_match_adjust":false,"enable_color_wheels":true,"enable_hsl":false,"enable_lut":true,"enable_smart_color_adjust":false,"enable_video_mask":true,"extra_material_refs":["910FC91E-CA67-4566-A1DE-04F6CF03D445","F38582EE-87A7-45c9-A613-46C647A1CC1F","A6EC036F-AD5C-4be4-90B0-E4916537B27C","178E86F9-58AF-4b60-A84C-9BA5C435D347","CFB546A0-190E-4d6c-AAF9-0D5CF5DC9A23","156FC49C-88D3-46a4-9A19-16347E545C54","43E4DACE-8618-4953-852E-2E2D78BC1B9E"],"group_id":"","hdr_settings":{"intensity":1.0,"mode":1,"nits":1000},"id":"3495C741-E951-436b-BFFF-8155F48B9A9B","intensifies_audio":false,"is_loop":false,"is_placeholder":false,"is_tone_modify":false,"keyframe_refs":[],"last_nonzero_volume":0.0,"lyric_keyframes":null,"material_id":"24B874D9-958B-4e6b-871C-AD1E6B37370C","raw_segment_id":"","render_index":0,"render_timerange":{"duration":0,"start":0},"responsive_layout":{"enable":false,"horizontal_pos_layout":0,"size_layout":0,"target_follow":"","vertical_pos_layout":0},"reverse":false,"source_timerange":{"duration":9833334,"start":9966666},"speed":1.0,"state":0,"target_timerange":{"duration":9833334,"start":9966666},"template_id":"","template_scene":"default","track_attribute":0,"track_render_index":0,"uniform_scale":{"on":true,"value":1.0},"visible":true,"volume":0.0},{"caption_info":null,"cartoon":false,"clip":{"alpha":1.0,"flip":{"horizontal":false,"vertical":false},"rotation":0.0,"scale":{"x":1.0,"y":1.0},"transform":{"x":0.0,"y":0.0}},"color_correct_alg_result":"","common_keyframes":[],"desc":"","digital_human_template_group_id":"","enable_adjust":true,"enable_adjust_mask":false,"enable_color_correct_adjust":false,"enable_color_curves":true,"enable_color_match_adjust":false,"enable_color_wheels":true,"enable_hsl":false,"enable_lut":true,"enable_smart_color_adjust":false,"enable_video_mask":true,"extra_material_refs":["AB08C2F7-CD15-4cec-BDE1-959FA65783D9","51EB6DC8-7505-4066-8CD0-248A741CA99D","8DA0E333-DBDA-4b38-8356-E7CAA881745A","B202F3A1-3D21-4305-B5CD-70B84402DBB9","8679D380-2405-4302-B347-D8F68F990FE9","E837B65F-FB68-45bf-930C-6A9229D0D4F0","93FEB14F-94B3-4f4b-98CF-86516DA6750B"],"group_id":"","hdr_settings":{"intensity":1.0,"mode":1,"nits":1000},"id":"B3A85D48-8152-4063-91C6-97FE35E018A3","intensifies_audio":false,"is_loop":false,"is_placeholder":false,"is_tone_modify":false,"keyframe_refs":[],"last_nonzero_volume":0.0,"lyric_keyframes":null,"material_id":"1E3E1C13-FF6D-48e7-87A4-3580D97E6309","raw_segment_id":"","render_index":0,"render_timerange":{"duration":0,"start":0},"responsive_layout":{"enable":false,"horizontal_pos_layout":0,"size_layout":0,"target_follow":"","vertical_pos_layout":0},"reverse":false,"source_timerange":{"duration":7600000,"start":20433333},"speed":1.0,"state":0,"target_timerange":{"duration":7600000,"start":19800000},"template_id":"","template_scene":"default","track_attribute":0,"track_render_index":0,"uniform_scale":{"on":true,"value":1.0},"visible":true,"volume":0.0},{"caption_info":null,"cartoon":false,"clip":{"alpha":1.0,"flip":{"horizontal":false,"vertical":false},"rotation":0.0,"scale":{"x":1.0,"y":1.0},"transform":{"x":0.0,"y":0.0}},"color_correct_alg_result":"","common_keyframes":[],"desc":"","digital_human_template_group_id":"","enable_adjust":true,"enable_adjust_mask":false,"enable_color_correct_adjust":false,"enable_color_curves":true,"enable_color_match_adjust":false,"enable_color_wheels":true,"enable_hsl":false,"enable_lut":true,"enable_smart_color_adjust":false,"enable_video_mask":true,"extra_material_refs":["17B41C8A-03E8-4429-B336-94639862B3A1","497AD010-1699-4e3f-8AB4-29840A2B19D2","DD26B45E-2B29-4f60-9A41-CF22D3ED3637","D220AF88-4BBD-4fd9-94C2-EA1CE4E5B2D8","FFE38309-668E-486e-A545-ACA447DC8FDD","09AAFBDE-331B-4b41-B9B6-C2BF79D44471","DC28C882-B12C-4577-B2AF-2DDBF1879D8B"],"group_id":"","hdr_settings":{"intensity":1.0,"mode":1,"nits":1000},"id":"9AB0378C-CCF9-4bca-9DFB-FC0470759AD9","intensifies_audio":false,"is_loop":false,"is_placeholder":false,"is_tone_modify":false,"keyframe_refs":[],"last_nonzero_volume":0.0,"lyric_keyframes":null,"material_id":"D7C693AC-AF01-4bb3-82BE-69FD8310B8D0","raw_segment_id":"","render_index":0,"render_timerange":{"duration":0,"start":0},"responsive_layout":{"enable":false,"horizontal_pos_layout":0,"size_layout":0,"target_follow":"","vertical_pos_layout":0},"reverse":false,"source_timerange":{"duration":6366666,"start":33500000},"speed":1.0,"state":0,"target_timerange":{"duration":6366666,"start":27400000},"template_id":"","template_scene":"default","track_attribute":0,"track_render_index":0,"uniform_scale":{"on":true,"value":1.0},"visible":true,"volume":0.0},{"caption_info":null,"cartoon":false,"clip":{"alpha":1.0,"flip":{"horizontal":false,"vertical":false},"rotation":0.0,"scale":{"x":1.0,"y":1.0},"transform":{"x":0.0,"y":0.0}},"color_correct_alg_result":"","common_keyframes":[],"desc":"","digital_human_template_group_id":"","enable_adjust":true,"enable_adjust_mask":false,"enable_color_correct_adjust":false,"enable_color_curves":true,"enable_color_match_adjust":false,"enable_color_wheels":true,"enable_hsl":false,"enable_lut":true,"enable_smart_color_adjust":false,"enable_video_mask":true,"extra_material_refs":["EFB8DE84-2311-41fe-AEBC-6E4D37A4B736","1594D32F-D4D0-4b87-8BC6-4816CE4B925F","B2169166-9588-4aed-96CF-0725FE22864C","6C903CFD-5EC8-4f2d-B7D3-05F66611E354","E728CA8A-E493-46f1-844C-7F9C3DB28523","158AEEA7-5D78-4333-BB8D-AE708C69FE2F"],"group_id":"","hdr_settings":{"intensity":1.0,"mode":1,"nits":1000},"id":"F1B70307-6D9D-4e69-8820-D535F02FB540","intensifies_audio":false,"is_loop":false,"is_placeholder":false,"is_tone_modify":false,"keyframe_refs":[],"last_nonzero_volume":0.0,"lyric_keyframes":null,"material_id":"4056A4FC-B28B-488d-8A73-193B53947426","raw_segment_id":"","render_index":0,"render_timerange":{"duration":0,"start":0},"responsive_layout":{"enable":false,"horizontal_pos_layout":0,"size_layout":0,"target_follow":"","vertical_pos_layout":0},"reverse":false,"source_timerange":{"duration":9266667,"start":39866666},"speed":1.0,"state":0,"target_timerange":{"duration":9266667,"start":33766666},"template_id":"","template_scene":"default","track_attribute":0,"track_render_index":0,"uniform_scale":{"on":true,"value":1.0},"visible":true,"volume":0.0},{"caption_info":null,"cartoon":false,"clip":{"alpha":1.0,"flip":{"horizontal":false,"vertical":false},"rotation":0.0,"scale":{"x":1.0,"y":1.0},"transform":{"x":0.0,"y":0.0}},"color_correct_alg_result":"","common_keyframes":[],"desc":"","digital_human_template_group_id":"","enable_adjust":true,"enable_adjust_mask":false,"enable_color_correct_adjust":false,"enable_color_curves":true,"enable_color_match_adjust":false,"enable_color_wheels":true,"enable_hsl":false,"enable_lut":true,"enable_smart_color_adjust":false,"enable_video_mask":true,"extra_material_refs":["46AF7973-53C2-4067-9DB1-3C2C23DA3C33","C588FB46-8996-4cd7-814E-56337ED8F300","18B84CC5-5DE6-4981-97EA-3D58FF2D6AC7","F2CF33BF-5C88-4372-BB65-7265C28C158E","51079EB4-5D00-4c10-91AB-8505AE74B8DD","C805F698-C19E-4daf-A4F4-8704AA8285DC"],"group_id":"","hdr_settings":{"intensity":1.0,"mode":1,"nits":1000},"id":"F4AF0186-0F39-4254-A1F7-7BD560070A03","intensifies_audio":false,"is_loop":false,"is_placeholder":false,"is_tone_modify":false,"keyframe_refs":[],"last_nonzero_volume":1.0,"lyric_keyframes":null,"material_id":"F2C15890-DD23-4fea-B37A-141E20A55E0F","raw_segment_id":"","render_index":0,"render_timerange":{"duration":0,"start":0},"responsive_layout":{"enable":false,"horizontal_pos_layout":0,"size_layout":0,"target_follow":"","vertical_pos_layout":0},"reverse":false,"source_timerange":{"duration":5366666,"start":300000},"speed":1.0,"state":0,"target_timerange":{"duration":5366667,"start":43033333},"template_id":"","template_scene":"default","track_attribute":0,"track_render_index":0,"uniform_scale":{"on":true,"value":1.0},"visible":true,"volume":1.0},{"caption_info":null,"cartoon":false,"clip":{"alpha":1.0,"flip":{"horizontal":false,"vertical":false},"rotation":0.0,"scale":{"x":1.0,"y":1.0},"transform":{"x":0.0,"y":0.0}},"color_correct_alg_result":"","common_keyframes":[],"desc":"","digital_human_template_group_id":"","enable_adjust":true,"enable_adjust_mask":false,"enable_color_correct_adjust":false,"enable_color_curves":true,"enable_color_match_adjust":false,"enable_color_wheels":true,"enable_hsl":false,"enable_lut":true,"enable_smart_color_adjust":false,"enable_video_mask":true,"extra_material_refs":["42E38562-0936-4c46-9B0A-070D773C7D28","2FBC911D-7381-4f5c-9D80-C53E5FD812CC","CD2DF359-C0B6-42c5-BC34-F1CF47A60802","00D0D4F5-69FD-4aad-9074-B96CA60704BE","8B41AFA2-6D1B-4594-A158-A5B0A97EC618","E9DDCF5B-44D1-4787-B347-B452D6D0FD20","A53A0D66-F0C8-4970-96A9-36DDAA1DB3BC"],"group_id":"","hdr_settings":{"intensity":1.0,"mode":1,"nits":1000},"id":"D1C5AD5A-BE29-4e2b-B088-D951F57C5F9E","intensifies_audio":false,"is_loop":false,"is_placeholder":false,"is_tone_modify":false,"keyframe_refs":[],"last_nonzero_volume":1.0,"lyric_keyframes":null,"material_id":"1F6D84CD-E54D-4019-933E-28643565D8B6","raw_segment_id":"","render_index":0,"render_timerange":{"duration":0,"start":0},"responsive_layout":{"enable":false,"horizontal_pos_layout":0,"size_layout":0,"target_follow":"","vertical_pos_layout":0},"reverse":false,"source_timerange":{"duration":4333334,"start":5666666},"speed":1.0,"state":0,"target_timerange":{"duration":4333333,"start":48400000},"template_id":"","template_scene":"default","track_attribute":0,"track_render_index":0,"uniform_scale":{"on":true,"value":1.0},"visible":true,"volume":1.0},{"caption_info":null,"cartoon":false,"clip":{"alpha":1.0,"flip":{"horizontal":false,"vertical":false},"rotation":0.0,"scale":{"x":1.0,"y":1.0},"transform":{"x":0.0,"y":0.0}},"color_correct_alg_result":"","common_keyframes":[],"desc":"","digital_human_template_group_id":"","enable_adjust":true,"enable_adjust_mask":false,"enable_color_correct_adjust":false,"enable_color_curves":true,"enable_color_match_adjust":false,"enable_color_wheels":true,"enable_hsl":false,"enable_lut":true,"enable_smart_color_adjust":false,"enable_video_mask":true,"extra_material_refs":["3C42988A-8669-4e29-9384-55EC51017C0B","76373E75-0A15-4a0b-84E7-68C62C0D3B22","A4D44E82-6F8B-41c9-9060-581E3C6D5B89","6C2F97A9-78A3-4316-AE29-00E2153FE47C","2816B8AE-E144-4474-A164-B89474C68C18","F6FE5A5E-F9FA-4532-95E5-8560B6C187BE"],"group_id":"","hdr_settings":{"intensity":1.0,"mode":1,"nits":1000},"id":"F1177F23-A54D-4cf0-95AA-3C014A198DCF","intensifies_audio":false,"is_loop":false,"is_placeholder":false,"is_tone_modify":false,"keyframe_refs":[],"last_nonzero_volume":0.0,"lyric_keyframes":null,"material_id":"B25FD30F-7263-471d-B562-80CFE6CECBAB","raw_segment_id":"","render_index":0,"render_timerange":{"duration":0,"start":0},"responsive_layout":{"enable":false,"horizontal_pos_layout":0,"size_layout":0,"target_follow":"","vertical_pos_layout":0},"reverse":false,"source_timerange":{"duration":9100000,"start":49966666},"speed":1.0,"state":0,"target_timerange":{"duration":9100000,"start":52733333},"template_id":"","template_scene":"default","track_attribute":0,"track_render_index":0,"uniform_scale":{"on":true,"value":1.0},"visible":true,"volume":0.0},{"caption_info":null,"cartoon":false,"clip":{"alpha":1.0,"flip":{"horizontal":false,"vertical":false},"rotation":0.0,"scale":{"x":1.0,"y":1.0},"transform":{"x":0.0,"y":0.0}},"color_correct_alg_result":"","common_keyframes":[],"desc":"","digital_human_template_group_id":"","enable_adjust":true,"enable_adjust_mask":false,"enable_color_correct_adjust":false,"enable_color_curves":true,"enable_color_match_adjust":false,"enable_color_wheels":true,"enable_hsl":false,"enable_lut":true,"enable_smart_color_adjust":false,"enable_video_mask":true,"extra_material_refs":["A3C39BE3-D24E-44ea-B768-9BFEF44C268F","7BC26471-B02C-43b4-9FDE-8DF7A80D4FC4","CAD8871A-AE4B-49ee-BA63-3D71EAD1F40F","35AD53D5-C765-471e-B817-C7D3CD307025","DC58A272-8F09-4c39-8533-759A0BE4F190"],"group_id":"","hdr_settings":{"intensity":1.0,"mode":1,"nits":1000},"id":"EA458DC0-99EA-4299-AAD4-6F149C3057F3","intensifies_audio":false,"is_loop":false,"is_placeholder":false,"is_tone_modify":false,"keyframe_refs":[],"last_nonzero_volume":1.0,"lyric_keyframes":null,"material_id":"5A327CCC-188C-4d35-A473-13E5BDFE3804","raw_segment_id":"","render_index":0,"render_timerange":{"duration":0,"start":0},"responsive_layout":{"enable":false,"horizontal_pos_layout":0,"size_layout":0,"target_follow":"","vertical_pos_layout":0},"reverse":false,"source_timerange":{"duration":9600000,"start":400000},"speed":1.0,"state":0,"target_timerange":{"duration":9600000,"start":61833333},"template_id":"","template_scene":"default","track_attribute":0,"track_render_index":0,"uniform_scale":{"on":true,"value":1.0},"visible":true,"volume":1.0},{"caption_info":null,"cartoon":false,"clip":{"alpha":1.0,"flip":{"horizontal":false,"vertical":false},"rotation":0.0,"scale":{"x":1.0,"y":1.0},"transform":{"x":0.0,"y":0.0}},"color_correct_alg_result":"","common_keyframes":[],"desc":"","digital_human_template_group_id":"","enable_adjust":true,"enable_adjust_mask":false,"enable_color_correct_adjust":false,"enable_color_curves":true,"enable_color_match_adjust":false,"enable_color_wheels":true,"enable_hsl":false,"enable_lut":true,"enable_smart_color_adjust":false,"enable_video_mask":true,"extra_material_refs":["18EB4446-5CBA-4759-9E47-98D728CAD683","75F57A92-10DD-4625-90EF-BD5EA14BF389","F0349F68-2B3C-41e1-B166-A134551A5722","4C3C1E3E-0F25-4e36-9714-EB15A32DAD00","0B73B2D6-3689-485a-83A9-CDC5C671743C","EB220A5D-9A73-40d4-8636-220CD2778E32"],"group_id":"","hdr_settings":{"intensity":1.0,"mode":1,"nits":1000},"id":"C888CF0B-3CC2-4bb3-AE4C-A4E47069BD64","intensifies_audio":false,"is_loop":false,"is_placeholder":false,"is_tone_modify":false,"keyframe_refs":[],"last_nonzero_volume":0.0,"lyric_keyframes":null,"material_id":"DAC5334F-169C-4e01-8A02-1ED2DFBB496E","raw_segment_id":"","render_index":0,"render_timerange":{"duration":0,"start":0},"responsive_layout":{"enable":false,"horizontal_pos_layout":0,"size_layout":0,"target_follow":"","vertical_pos_layout":0},"reverse":false,"source_timerange":{"duration":1233334,"start":68666666},"speed":1.0,"state":0,"target_timerange":{"duration":1233333,"start":71433333},"template_id":"","template_scene":"default","track_attribute":0,"track_render_index":0,"uniform_scale":{"on":true,"value":1.0},"visible":true,"volume":0.0},{"caption_info":null,"cartoon":false,"clip":{"alpha":1.0,"flip":{"horizontal":false,"vertical":false},"rotation":0.0,"scale":{"x":1.0,"y":1.0},"transform":{"x":0.0,"y":0.0}},"color_correct_alg_result":"","common_keyframes":[],"desc":"","digital_human_template_group_id":"","enable_adjust":true,"enable_adjust_mask":false,"enable_color_correct_adjust":false,"enable_color_curves":true,"enable_color_match_adjust":false,"enable_color_wheels":true,"enable_hsl":false,"enable_lut":true,"enable_smart_color_adjust":false,"enable_video_mask":true,"extra_material_refs":["5F98BA74-B4F6-42ff-856E-0E908852710D","F9CBE464-E9A9-45c0-BF0E-0B0908584574","06500254-3C38-4615-8B11-C6FB24CBE730","E712D1AC-FB99-4394-9A57-CC24E9311D4A","267F8F74-8B83-435e-80F7-65F91871F509"],"group_id":"","hdr_settings":{"intensity":1.0,"mode":1,"nits":1000},"id":"1962FB03-3C81-4280-A794-06A3F0F454CF","intensifies_audio":false,"is_loop":false,"is_placeholder":false,"is_tone_modify":false,"keyframe_refs":[],"last_nonzero_volume":1.0,"lyric_keyframes":null,"material_id":"D0E84103-40FB-4ad1-BE9D-9FDBE9D7B148","raw_segment_id":"","render_index":0,"render_timerange":{"duration":0,"start":0},"responsive_layout":{"enable":false,"horizontal_pos_layout":0,"size_layout":0,"target_follow":"","vertical_pos_layout":0},"reverse":false,"source_timerange":{"duration":10000000,"start":0},"speed":1.0,"state":0,"target_timerange":{"duration":10000000,"start":72666666},"template_id":"","template_scene":"default","track_attribute":0,"track_render_index":0,"uniform_scale":{"on":true,"value":1.0},"visible":true,"volume":1.0},{"caption_info":null,"cartoon":false,"clip":{"alpha":1.0,"flip":{"horizontal":false,"vertical":false},"rotation":0.0,"scale":{"x":1.0,"y":1.0},"transform":{"x":0.0,"y":0.0}},"color_correct_alg_result":"","common_keyframes":[],"desc":"","digital_human_template_group_id":"","enable_adjust":true,"enable_adjust_mask":false,"enable_color_correct_adjust":false,"enable_color_curves":true,"enable_color_match_adjust":false,"enable_color_wheels":true,"enable_hsl":false,"enable_lut":true,"enable_smart_color_adjust":false,"enable_video_mask":true,"extra_material_refs":["C1D60249-517F-4d0f-9FD9-518469526A31","65F30F7A-3225-4bd7-8A16-595B568E45C1","DCBC7275-1B13-4beb-9702-0BE5BFF19592","8EE9D96A-6525-4a83-9FD1-86190146F270","BFCB7A67-0E0D-42d1-8BF0-7FCEA689BC97","6791A0E7-A38C-41a5-8A36-EDD1540CBA24"],"group_id":"","hdr_settings":{"intensity":1.0,"mode":1,"nits":1000},"id":"72478A02-DE26-4637-8A94-AB0E43831907","intensifies_audio":false,"is_loop":false,"is_placeholder":false,"is_tone_modify":false,"keyframe_refs":[],"last_nonzero_volume":1.0,"lyric_keyframes":null,"material_id":"0613462A-032D-4ae7-A0C7-AC56AE97D86D","raw_segment_id":"","render_index":0,"render_timerange":{"duration":0,"start":0},"responsive_layout":{"enable":false,"horizontal_pos_layout":0,"size_layout":0,"target_follow":"","vertical_pos_layout":0},"reverse":false,"source_timerange":{"duration":2433333,"start":1300000},"speed":1.0,"state":0,"target_timerange":{"duration":2433334,"start":82666666},"template_id":"","template_scene":"default","track_attribute":0,"track_render_index":0,"uniform_scale":{"on":true,"value":1.0},"visible":true,"volume":1.0},{"caption_info":null,"cartoon":false,"clip":{"alpha":1.0,"flip":{"horizontal":false,"vertical":false},"rotation":0.0,"scale":{"x":1.0,"y":1.0},"transform":{"x":0.0,"y":0.0}},"color_correct_alg_result":"","common_keyframes":[],"desc":"","digital_human_template_group_id":"","enable_adjust":true,"enable_adjust_mask":false,"enable_color_correct_adjust":false,"enable_color_curves":true,"enable_color_match_adjust":false,"enable_color_wheels":true,"enable_hsl":false,"enable_lut":true,"enable_smart_color_adjust":false,"enable_video_mask":true,"extra_material_refs":["46D69ED8-33AA-4af2-9A3E-4575AC14257C","BFA28B5A-D69D-420c-8FC5-B533349B7B0B","B00099E4-98CC-43c7-89DB-DE4DBDE5CB96","F2BE4D36-903E-4405-ACD0-0153843E687B","93077F3F-B3EA-4011-9DB9-A9EE6C66FFF3"],"group_id":"","hdr_settings":{"intensity":1.0,"mode":1,"nits":1000},"id":"A16DCB0D-367F-4511-9E73-73A826BB57F1","intensifies_audio":false,"is_loop":false,"is_placeholder":false,"is_tone_modify":false,"keyframe_refs":[],"last_nonzero_volume":1.0,"lyric_keyframes":null,"material_id":"608E1296-71CF-4b51-BE79-7BA66E266AC9","raw_segment_id":"","render_index":0,"render_timerange":{"duration":0,"start":0},"responsive_layout":{"enable":false,"horizontal_pos_layout":0,"size_layout":0,"target_follow":"","vertical_pos_layout":0},"reverse":false,"source_timerange":{"duration":3000000,"start":0},"speed":1.0,"state":0,"target_timerange":{"duration":3000000,"start":85100000},"template_id":"","template_scene":"default","track_attribute":0,"track_render_index":0,"uniform_scale":{"on":true,"value":1.0},"visible":true,"volume":1.0}],"type":"video"},{"attribute":0,"flag":0,"id":"A19EA43C-88A9-4657-B226-9AE19B458606","is_default_name":true,"name":"","segments":[{"caption_info":null,"cartoon":false,"clip":null,"color_correct_alg_result":"","common_keyframes":[],"desc":"","digital_human_template_group_id":"","enable_adjust":false,"enable_adjust_mask":false,"enable_color_correct_adjust":false,"enable_color_curves":true,"enable_color_match_adjust":false,"enable_color_wheels":true,"enable_hsl":false,"enable_lut":false,"enable_smart_color_adjust":false,"enable_video_mask":true,"extra_material_refs":["D4A87F55-ABC8-48f0-A604-3AE575ED5663","7062C78B-2CF4-4b49-A24C-3A5AFC03CC6D","C51BD09D-3A61-49da-90A9-C1F2A46D6D59","5F432916-4D6E-4b16-9BC3-3A77075CB84C","1D3BB46E-FA6D-42d2-95FB-5C6432E7097F"],"group_id":"","hdr_settings":null,"id":"7C271694-DE30-4090-82B5-4E739CABF299","intensifies_audio":false,"is_loop":false,"is_placeholder":false,"is_tone_modify":false,"keyframe_refs":[],"last_nonzero_volume":1.0,"lyric_keyframes":null,"material_id":"06219819-263E-49d2-B448-63BD1043EDBA","raw_segment_id":"","render_index":0,"render_timerange":{"duration":0,"start":0},"responsive_layout":{"enable":false,"horizontal_pos_layout":0,"size_layout":0,"target_follow":"","vertical_pos_layout":0},"reverse":false,"source_timerange":{"duration":88066666,"start":0},"speed":1.0,"state":0,"target_timerange":{"duration":88066666,"start":0},"template_id":"","template_scene":"default","track_attribute":0,"track_render_index":1,"uniform_scale":null,"visible":true,"volume":1.0}],"type":"audio"}],"uneven_animation_template_info":{"composition":"","content":"","order":"","sub_template_info_list":[]},"update_time":0,"version":360000}